<svg width="68" height="9" viewBox="0 0 68 9" fill="none" xmlns="http://www.w3.org/2000/svg">
<g clip-path="url(#clip0_2_2)">
<path d="M0.477264 1.59801V0.272728H7.44033V1.59801H4.74289V9H3.17471V1.59801H0.477264ZM8.78266 9V0.272728H12.0554C12.7259 0.272728 13.2884 0.389205 13.7429 0.62216C14.2003 0.855114 14.5455 1.18182 14.7784 1.60227C15.0142 2.01989 15.1321 2.5071 15.1321 3.06392C15.1321 3.62358 15.0128 4.10937 14.7741 4.52131C14.5384 4.9304 14.1903 5.24716 13.7301 5.47159C13.2699 5.69318 12.7045 5.80398 12.0341 5.80398H9.70311V4.49148H11.821C12.2131 4.49148 12.5341 4.4375 12.7841 4.32955C13.0341 4.21875 13.2188 4.05824 13.3381 3.84801C13.4602 3.63494 13.5213 3.37358 13.5213 3.06392C13.5213 2.75426 13.4602 2.49006 13.3381 2.27131C13.2159 2.04972 13.0298 1.8821 12.7798 1.76847C12.5298 1.65199 12.2074 1.59375 11.8125 1.59375H10.3636V9H8.78266ZM13.2912 5.04545L15.4517 9H13.6875L11.5653 5.04545H13.2912ZM17.7081 9H16.0206L19.093 0.272728H21.0447L24.1214 9H22.4339L20.103 2.0625H20.0348L17.7081 9ZM17.7635 5.57812H22.3658V6.84801H17.7635V5.57812ZM25.4425 0.272728L27.7138 7.14205H27.8033L30.0703 0.272728H31.8089L28.7322 9H26.7805L23.7081 0.272728H25.4425ZM32.9585 9V0.272728H38.6346V1.59801H34.5394V3.96733H38.3406V5.29261H34.5394V7.67472H38.6687V9H32.9585ZM40.2475 9V0.272728H41.8285V7.67472H45.6722V9H40.2475ZM47.0444 9V0.272728H48.6254V7.67472H52.4691V9H47.0444ZM53.8413 9V0.272728H59.5174V1.59801H55.4222V3.96733H59.2234V5.29261H55.4222V7.67472H59.5515V9H53.8413ZM61.1303 9V0.272728H64.4031C65.0735 0.272728 65.636 0.389205 66.0906 0.62216C66.5479 0.855114 66.8931 1.18182 67.1261 1.60227C67.3619 2.01989 67.4798 2.5071 67.4798 3.06392C67.4798 3.62358 67.3604 4.10937 67.1218 4.52131C66.886 4.9304 66.538 5.24716 66.0778 5.47159C65.6175 5.69318 65.0522 5.80398 64.3817 5.80398H62.0508V4.49148H64.1687C64.5607 4.49148 64.8817 4.4375 65.1317 4.32955C65.3817 4.21875 65.5664 4.05824 65.6857 3.84801C65.8079 3.63494 65.869 3.37358 65.869 3.06392C65.869 2.75426 65.8079 2.49006 65.6857 2.27131C65.5636 2.04972 65.3775 1.8821 65.1275 1.76847C64.8775 1.65199 64.555 1.59375 64.1602 1.59375H62.7113V9H61.1303ZM65.6388 5.04545L67.7994 9H66.0352L63.913 5.04545H65.6388Z" fill="black"/>
</g>
<defs>
<clipPath id="clip0_2_2">
<rect width="68" height="9" fill="white"/>
</clipPath>
</defs>
</svg>
